<svg width="16" height="15" viewBox="0 0 16 15" fill="none" xmlns="http://www.w3.org/2000/svg">
<path d="M8.35665 1.12019L9.42622 4.41198C9.64376 5.08152 10.2677 5.53483 10.9717 5.53483H14.4329C14.7962 5.53483 14.9472 5.99968 14.6533 6.21321L11.8531 8.24765C11.2836 8.66145 11.0453 9.39492 11.2628 10.0645L12.3324 13.3563C12.4446 13.7017 12.0492 13.989 11.7553 13.7755L8.95515 11.7411C8.38561 11.3273 7.61439 11.3273 7.04485 11.7411L4.24468 13.7755C3.95079 13.989 3.55536 13.7017 3.66761 13.3563L4.73718 10.0645C4.95473 9.39492 4.71641 8.66145 4.14687 8.24765L1.3467 6.21321C1.05281 5.99969 1.20385 5.53483 1.56712 5.53483H5.02832C5.73231 5.53483 6.35624 5.08152 6.57378 4.41198L7.64335 1.12019C7.75561 0.774695 8.24439 0.774694 8.35665 1.12019Z" stroke="#A7C5EB" stroke-width="1.25"/>
</svg>
